<?xml version="1.0" encoding="utf-8"?>
<!-- Generator: Adobe Illustrator 23.0.1, SVG Export Plug-In . SVG Version: 6.00 Build 0)  -->
<svg version="1.1" xmlns="http://www.w3.org/2000/svg" xmlns:xlink="http://www.w3.org/1999/xlink" x="0px" y="0px"
	 viewBox="0 0 237.6 237.6" style="enable-background:new 0 0 237.6 237.6;" xml:space="preserve">
<style type="text/css">
	.st0{fill:#FFFFFF;stroke:#000000;stroke-width:0.5;stroke-miterlimit:10;}
	.st1{fill:#173441;}
	.st2{fill:#537173;}
	.st3{fill:#8FA99B;}
	.st4{fill:#FFFFFF;}
	.st5{font-family:'Tahoma-Bold';}
	.st6{font-size:16px;}
	.st7{letter-spacing:8;}
</style>
<g id="Layer_4">
</g>
<g id="Layer_2">
	<g>
		<circle class="st0" cx="120.7" cy="93.7" r="86.5"/>
		<circle class="st1" cx="78.86" cy="68.6" r="13.15"/>
		<circle class="st1" cx="131.4" cy="42.3" r="13.15"/>
		<circle class="st1" cx="175.05" cy="89.06" r="13.15"/>
		<circle class="st1" cx="152.81" cy="135.42" r="13.15"/>
		<circle class="st1" cx="84.2" cy="128.31" r="13.15"/>
		<g>
			<path class="st2" d="M97.82,88.34v16.51c0,0,0,1.27,3.17,1.27c3.17,0,7.62,0,7.62,0s-0.63,3.17,0,3.81
				c0.63,0.63,15.24,0.63,15.24,0.63s1.9-0.63,1.9-1.27c0-0.63-0.63-3.17-0.63-3.17s2.54-0.63,3.81,0
				c1.27,0.63,12.06,8.89,13.33,8.89c1.27,0,3.81,0,3.81-1.27c0-1.27,0.63-31.75,0-32.38c-0.63-0.63,0-1.9-2.54-1.27
				c-2.54,0.63-7.62,4.44-7.62,4.44s-2.54-22.22-19.68-8.89C116.23,75.64,95.28,59.77,97.82,88.34z"/>
			<circle class="st3" cx="107.03" cy="82.31" r="6.67"/>
			<circle class="st3" cx="124.81" cy="82.31" r="6.67"/>
			<circle class="st2" cx="127.98" cy="115.96" r="6.67"/>
			<polygon class="st3" points="132.74,92.15 141,86.44 141.63,108.02 132.74,102.94 			"/>
			<circle class="st3" cx="128.3" cy="116.28" r="1.9"/>
		</g>
	</g>
	<text transform="matrix(1 0 0 1 30.3602 195.3201)"><tspan x="0" y="0" class="st4 st5 st6 st7">GIVINGBACK</tspan><tspan x="0" y="19.2" class="st4 st5 st6 st7">   STUDIO</tspan></text>
</g>
</svg>
